
        <svg width="200" height="200" viewBox="0 0 200 200" xmlns="http://www.w3.org/2000/svg">
          <defs>
            <linearGradient id="bootsGrad" x1="0%" y1="0%" x2="100%" y2="100%">
              <stop offset="0%" style="stop-color:#6d4c41;stop-opacity:1" />
              <stop offset="100%" style="stop-color:#3e2723;stop-opacity:1" />
            </linearGradient>
          </defs>
          <rect width="200" height="200" fill="#f3e5f5"/>
          <ellipse cx="100" cy="120" rx="40" ry="15" fill="url(#bootsGrad)"/>
          <rect x="80" y="70" width="40" height="50" rx="5" fill="url(#bootsGrad)" stroke="#2e2e2e" stroke-width="2"/>
          <rect x="85" y="75" width="30" height="8" rx="2" fill="#8d6e63" opacity="0.8"/>
          <rect x="85" y="90" width="30" height="8" rx="2" fill="#8d6e63" opacity="0.8"/>
          <rect x="85" y="105" width="30" height="8" rx="2" fill="#8d6e63" opacity="0.8"/>
          <circle cx="90" cy="79" r="1" fill="#424242"/>
          <circle cx="110" cy="79" r="1" fill="#424242"/>
          <circle cx="90" cy="94" r="1" fill="#424242"/>
          <circle cx="110" cy="94" r="1" fill="#424242"/>
          <circle cx="90" cy="109" r="1" fill="#424242"/>
          <circle cx="110" cy="109" r="1" fill="#424242"/>
          <path d="M80,120 Q75,125 80,130 L120,130 Q125,125 120,120" fill="#2e2e2e"/>
          <text x="100" y="160" font-family="Arial" font-size="12" text-anchor="middle" fill="#5d4037">TrekStar</text>
        </svg>